<?xml version="1.0" encoding="UTF-8"?>
<!DOCTYPE svg PUBLIC "-//W3C//DTD SVG 1.1//EN" "http://www.w3.org/Graphics/SVG/1.1/DTD/svg11.dtd">
<!-- Creator: CorelDRAW X8 -->
<svg xmlns="http://www.w3.org/2000/svg" xml:space="preserve" width="256px" height="128px" version="1.1" style="shape-rendering:geometricPrecision; text-rendering:geometricPrecision; image-rendering:optimizeQuality; fill-rule:evenodd; clip-rule:evenodd"
viewBox="0 0 256 128"
 xmlns:xlink="http://www.w3.org/1999/xlink">
 <defs>
  <style type="text/css">
   <![CDATA[
    .fil0 {fill:none}
    .fil7 {fill:#CCCCCC}
    .fil1 {fill:white}
    .fil6 {fill:url(#id0)}
    .fil9 {fill:url(#id1)}
    .fil3 {fill:url(#id2)}
    .fil2 {fill:url(#id3)}
    .fil8 {fill:url(#id4)}
    .fil10 {fill:url(#id5)}
    .fil4 {fill:url(#id6)}
    .fil5 {fill:url(#id7)}
    .fil11 {fill:url(#id8)}
   ]]>
  </style>
  <linearGradient id="id0" gradientUnits="userSpaceOnUse" x1="192" y1="120" x2="192" y2="8.00023">
   <stop offset="0" style="stop-opacity:1; stop-color:#000099"/>
   <stop offset="0.4" style="stop-opacity:1; stop-color:#0033FF"/>
   <stop offset="0.6" style="stop-opacity:1; stop-color:#0033FF"/>
   <stop offset="1" style="stop-opacity:1; stop-color:#000099"/>
  </linearGradient>
  <linearGradient id="id1" gradientUnits="userSpaceOnUse" x1="194.829" y1="61.172" x2="189.172" y2="66.8288">
   <stop offset="0" style="stop-opacity:1; stop-color:#666666"/>
   <stop offset="0.501961" style="stop-opacity:1; stop-color:#CCCCCC"/>
   <stop offset="1" style="stop-opacity:1; stop-color:#666666"/>
  </linearGradient>
  <linearGradient id="id2" gradientUnits="userSpaceOnUse" x1="66.8283" y1="61.172" x2="61.1714" y2="66.8288">
   <stop offset="0" style="stop-opacity:1; stop-color:white"/>
   <stop offset="0.501961" style="stop-opacity:0.498039; stop-color:white"/>
   <stop offset="1" style="stop-opacity:1; stop-color:white"/>
  </linearGradient>
  <linearGradient id="id3" gradientUnits="userSpaceOnUse" xlink:href="#id2" x1="66.828" y1="66.8286" x2="61.1712" y2="61.1717">
  </linearGradient>
  <linearGradient id="id4" gradientUnits="userSpaceOnUse" xlink:href="#id1" x1="194.828" y1="66.8286" x2="189.171" y2="61.1717">
  </linearGradient>
  <radialGradient id="id5" gradientUnits="objectBoundingBox" cx="50%" cy="50%" r="50%" fx="50%" fy="50%">
   <stop offset="0" style="stop-opacity:1; stop-color:#CCCCCC"/>
   <stop offset="1" style="stop-opacity:1; stop-color:#666666"/>
  </radialGradient>
  <radialGradient id="id6" gradientUnits="objectBoundingBox" cx="50%" cy="50%" r="50%" fx="50%" fy="50%">
   <stop offset="0" style="stop-opacity:0.498039; stop-color:white"/>
   <stop offset="1" style="stop-opacity:1; stop-color:white"/>
  </radialGradient>
  <radialGradient id="id7" gradientUnits="objectBoundingBox" cx="50%" cy="50%" r="50%" fx="50%" fy="50%">
   <stop offset="0" style="stop-opacity:0; stop-color:white"/>
   <stop offset="0.901961" style="stop-opacity:0; stop-color:white"/>
   <stop offset="0.94902" style="stop-opacity:1; stop-color:white"/>
   <stop offset="1" style="stop-opacity:1; stop-color:white"/>
   <stop offset="1" style="stop-opacity:0.2; stop-color:white"/>
  </radialGradient>
  <radialGradient id="id8" gradientUnits="userSpaceOnUse" gradientTransform="matrix(1 -0 -0 1 0 0)" cx="192" cy="64.0001" r="64.0001" fx="192" fy="64.0001">
   <stop offset="0" style="stop-opacity:1; stop-color:#333333"/>
   <stop offset="0.901961" style="stop-opacity:1; stop-color:#999999"/>
   <stop offset="0.960784" style="stop-opacity:1; stop-color:#CCCCCC"/>
   <stop offset="1" style="stop-opacity:1; stop-color:white"/>
  </radialGradient>
 </defs>
 <g id="Слой_x0020_1">
  <metadata id="CorelCorpID_0Corel-Layer"/>
  <circle class="fil0" cx="64" cy="64" r="56"/>
  <g id="_737871776">
   <path class="fil1" d="M8 62l8 0 0 4 -8 0 0 -4zm104 0l8 0 0 4 -8 0 0 -4z"/>
   <path class="fil1" d="M15 90l6 -4 2 4 -6 4 -2 -4zm90 -52l6 -4 2 4 -6 4 -2 -4z"/>
   <path class="fil1" d="M34 111l4 -6 4 2 -4 6 -4 -2zm52 -90l4 -6 4 2 -4 6 -4 -2z"/>
   <path class="fil1" d="M62 120l0 -8 4 0 0 8 -4 0zm0 -104l0 -8 4 0 0 8 -4 0z"/>
   <path class="fil1" d="M90 113l-4 -6 4 -2 4 6 -4 2zm-52 -90l-4 -6 4 -2 4 6 -4 2z"/>
   <path class="fil1" d="M111 94l-6 -4 2 -4 6 4 -2 4zm-90 -52l-6 -4 2 -4 6 4 -2 4z"/>
  </g>
  <path class="fil2" d="M64 58l31 -31 6 6 -31 31c0,-3 -3,-6 -6,-6z"/>
  <path class="fil3" d="M58 64l-25 -25 6 -6 25 25c-3,0 -6,3 -6,6z"/>
  <circle class="fil4" cx="64" cy="64" r="6"/>
  <path class="fil5" d="M64 0c35,0 64,29 64,64 0,35 -29,64 -64,64 -35,0 -64,-29 -64,-64 0,-35 29,-64 64,-64zm0 8c31,0 56,25 56,56 0,31 -25,56 -56,56 -31,0 -56,-25 -56,-56 0,-31 25,-56 56,-56z"/>
  <circle class="fil6" cx="192" cy="64" r="56"/>
  <g id="_737862432">
   <path class="fil7" d="M136 62l8 0 0 4 -8 0 0 -4zm104 0l8 0 0 4 -8 0 0 -4z"/>
   <path class="fil7" d="M143 90l6 -4 2 4 -6 4 -2 -4zm90 -52l6 -4 2 4 -6 4 -2 -4z"/>
   <path class="fil7" d="M162 111l4 -6 4 2 -4 6 -4 -2zm52 -90l4 -6 4 2 -4 6 -4 -2z"/>
   <path class="fil7" d="M190 120l0 -8 4 0 0 8 -4 0zm0 -104l0 -8 4 0 0 8 -4 0z"/>
   <path class="fil7" d="M218 113l-4 -6 4 -2 4 6 -4 2zm-52 -90l-4 -6 4 -2 4 6 -4 2z"/>
   <path class="fil7" d="M239 94l-6 -4 2 -4 6 4 -2 4zm-90 -52l-6 -4 2 -4 6 4 -2 4z"/>
  </g>
  <path class="fil8" d="M192 58l31 -31 6 6 -31 31c0,-3 -3,-6 -6,-6z"/>
  <path class="fil9" d="M186 64l-25 -25 6 -6 25 25c-3,0 -6,3 -6,6z"/>
  <circle class="fil10" cx="192" cy="64" r="6"/>
  <path class="fil11" d="M192 0c35,0 64,29 64,64 0,35 -29,64 -64,64 -35,0 -64,-29 -64,-64 0,-35 29,-64 64,-64zm0 8c31,0 56,25 56,56 0,31 -25,56 -56,56 -31,0 -56,-25 -56,-56 0,-31 25,-56 56,-56z"/>
 </g>
</svg>
