<?xml version="1.0" encoding="UTF-8"?>
<!DOCTYPE svg PUBLIC "-//W3C//DTD SVG 1.1//EN" "http://www.w3.org/Graphics/SVG/1.1/DTD/svg11.dtd">
<!-- Creator: CorelDRAW X8 -->
<svg xmlns="http://www.w3.org/2000/svg" xml:space="preserve" width="128px" height="64px" version="1.1" style="shape-rendering:geometricPrecision; text-rendering:geometricPrecision; image-rendering:optimizeQuality; fill-rule:evenodd; clip-rule:evenodd"
viewBox="0 0 128 64"
 xmlns:xlink="http://www.w3.org/1999/xlink">
 <defs>
  <style type="text/css">
   <![CDATA[
    .fil1 {fill:#CCCCCC}
    .fil5 {fill:url(#id0)}
    .fil0 {fill:url(#id1)}
    .fil7 {fill:url(#id2)}
    .fil3 {fill:url(#id3)}
    .fil2 {fill:url(#id4)}
    .fil6 {fill:url(#id5)}
    .fil4 {fill:url(#id6)}
    .fil8 {fill:url(#id7)}
    .fil9 {fill:url(#id8)}
   ]]>
  </style>
  <linearGradient id="id0" gradientUnits="userSpaceOnUse" x1="96.0001" y1="60" x2="96.0001" y2="4.00012">
   <stop offset="0" style="stop-opacity:1; stop-color:#000099"/>
   <stop offset="0.4" style="stop-opacity:1; stop-color:#0033FF"/>
   <stop offset="0.6" style="stop-opacity:1; stop-color:#0033FF"/>
   <stop offset="1" style="stop-opacity:1; stop-color:#000099"/>
  </linearGradient>
  <linearGradient id="id1" gradientUnits="userSpaceOnUse" x1="31.9999" y1="60" x2="31.9999" y2="4.00012">
   <stop offset="0" style="stop-opacity:1; stop-color:#1378C0"/>
   <stop offset="0.0117647" style="stop-opacity:1; stop-color:#0033FF"/>
   <stop offset="0.4" style="stop-opacity:1; stop-color:#0066FF"/>
   <stop offset="0.6" style="stop-opacity:1; stop-color:#0066FF"/>
   <stop offset="1" style="stop-opacity:1; stop-color:#0033FF"/>
  </linearGradient>
  <linearGradient id="id2" gradientUnits="userSpaceOnUse" x1="97.4143" y1="30.586" x2="94.5859" y2="33.4144">
   <stop offset="0" style="stop-opacity:1; stop-color:#666666"/>
   <stop offset="0.501961" style="stop-opacity:1; stop-color:#CCCCCC"/>
   <stop offset="1" style="stop-opacity:1; stop-color:#666666"/>
  </linearGradient>
  <linearGradient id="id3" gradientUnits="userSpaceOnUse" xlink:href="#id2" x1="33.4141" y1="30.586" x2="30.5857" y2="33.4144">
  </linearGradient>
  <linearGradient id="id4" gradientUnits="userSpaceOnUse" xlink:href="#id2" x1="33.414" y1="33.4143" x2="30.5856" y2="30.5859">
  </linearGradient>
  <linearGradient id="id5" gradientUnits="userSpaceOnUse" xlink:href="#id2" x1="97.4141" y1="33.4143" x2="94.5857" y2="30.5859">
  </linearGradient>
  <radialGradient id="id6" gradientUnits="objectBoundingBox" cx="50%" cy="50%" r="50%" fx="50%" fy="50%">
   <stop offset="0" style="stop-opacity:1; stop-color:#CCCCCC"/>
   <stop offset="1" style="stop-opacity:1; stop-color:#666666"/>
  </radialGradient>
  <radialGradient id="id7" gradientUnits="objectBoundingBox" cx="50%" cy="50%" r="50%" fx="50%" fy="50%">
   <stop offset="0" style="stop-opacity:1; stop-color:#333333"/>
   <stop offset="0.901961" style="stop-opacity:1; stop-color:#999999"/>
   <stop offset="0.960784" style="stop-opacity:1; stop-color:#CCCCCC"/>
   <stop offset="1" style="stop-opacity:1; stop-color:white"/>
  </radialGradient>
  <radialGradient id="id8" gradientUnits="userSpaceOnUse" gradientTransform="matrix(1 -0 -0 1 0 0)" xlink:href="#id7" cx="96.0002" cy="32.0001" r="32.0001" fx="96.0002" fy="32.0001">
  </radialGradient>
 </defs>
 <g id="Слой_x0020_1">
  <metadata id="CorelCorpID_0Corel-Layer"/>
  <circle class="fil0" cx="32" cy="32" r="28"/>
  <g id="_721908432">
   <path class="fil1" d="M4 31l4 0 0 2 -4 0 0 -2zm52 0l4 0 0 2 -4 0 0 -2z"/>
   <path class="fil1" d="M7 45l4 -2 1 2 -4 2 -1 -2zm45 -26l4 -2 1 2 -4 2 -1 -2z"/>
   <path class="fil1" d="M17 56l2 -4 2 1 -2 4 -2 -1zm26 -45l2 -4 2 1 -2 4 -2 -1z"/>
   <path class="fil1" d="M31 60l0 -4 2 0 0 4 -2 0zm0 -52l0 -4 2 0 0 4 -2 0z"/>
   <path class="fil1" d="M45 57l-2 -4 2 -1 2 4 -2 1zm-26 -45l-2 -4 2 -1 2 4 -2 1z"/>
   <path class="fil1" d="M56 47l-4 -2 1 -2 4 2 -1 2zm-45 -26l-4 -2 1 -2 4 2 -1 2z"/>
  </g>
  <path class="fil2" d="M32 29l16 -15 2 2 -15 16c0,-2 -1,-3 -3,-3z"/>
  <path class="fil3" d="M29 32l-13 -13 3 -3 13 13c-2,0 -3,1 -3,3z"/>
  <circle class="fil4" cx="32" cy="32" r="3"/>
  <circle class="fil5" cx="96" cy="32" r="28"/>
  <g id="_718192112">
   <path class="fil1" d="M68 31l4 0 0 2 -4 0 0 -2zm52 0l4 0 0 2 -4 0 0 -2z"/>
   <path class="fil1" d="M71 45l4 -2 1 2 -4 2 -1 -2zm45 -26l4 -2 1 2 -4 2 -1 -2z"/>
   <path class="fil1" d="M81 56l2 -4 2 1 -2 4 -2 -1zm26 -45l2 -4 2 1 -2 4 -2 -1z"/>
   <path class="fil1" d="M95 60l0 -4 2 0 0 4 -2 0zm0 -52l0 -4 2 0 0 4 -2 0z"/>
   <path class="fil1" d="M109 57l-2 -4 2 -1 2 4 -2 1zm-26 -45l-2 -4 2 -1 2 4 -2 1z"/>
   <path class="fil1" d="M120 47l-4 -2 1 -2 4 2 -1 2zm-45 -26l-4 -2 1 -2 4 2 -1 2z"/>
  </g>
  <path class="fil6" d="M96 29l16 -15 2 2 -15 16c0,-2 -1,-3 -3,-3z"/>
  <path class="fil7" d="M93 32l-13 -13 3 -3 13 13c-2,0 -3,1 -3,3z"/>
  <circle class="fil4" cx="96" cy="32" r="3"/>
  <path class="fil8" d="M32 0c18,0 32,14 32,32 0,18 -14,32 -32,32 -18,0 -32,-14 -32,-32 0,-18 14,-32 32,-32zm0 4c15,0 28,13 28,28 0,15 -13,28 -28,28 -15,0 -28,-13 -28,-28 0,-15 13,-28 28,-28z"/>
  <path class="fil9" d="M96 0c18,0 32,14 32,32 0,18 -14,32 -32,32 -18,0 -32,-14 -32,-32 0,-18 14,-32 32,-32zm0 4c15,0 28,13 28,28 0,15 -13,28 -28,28 -15,0 -28,-13 -28,-28 0,-15 13,-28 28,-28z"/>
 </g>
</svg>
