<?xml version="1.0" encoding="UTF-8"?>
<!DOCTYPE svg PUBLIC "-//W3C//DTD SVG 1.1//EN" "http://www.w3.org/Graphics/SVG/1.1/DTD/svg11.dtd">
<!-- Creator: CorelDRAW X8 -->
<svg xmlns="http://www.w3.org/2000/svg" xml:space="preserve" width="128px" height="64px" version="1.1" style="shape-rendering:geometricPrecision; text-rendering:geometricPrecision; image-rendering:optimizeQuality; fill-rule:evenodd; clip-rule:evenodd"
viewBox="0 0 128 64"
 xmlns:xlink="http://www.w3.org/1999/xlink">
 <defs>
  <style type="text/css">
   <![CDATA[
    .fil0 {fill:none}
    .fil7 {fill:#0033FF}
    .fil6 {fill:#0066FF}
    .fil4 {fill:#FDFDFD}
    .fil1 {fill:white}
    .fil2 {fill:#F0F0F0}
    .fil3 {fill:#FAFAFA}
    .fil5 {fill:#FDFDFD}
   ]]>
  </style>
 </defs>
 <g id="Слой_x0020_1">
  <metadata id="CorelCorpID_0Corel-Layer"/>
  <rect class="fil0" width="128" height="64"/>
  <path class="fil1" d="M56 36l0 24 -14 0 -2 0 0 -20 -16 0 0 20 -2 0 -14 0 0 -24 0 -1 24 -24 24 24 0 1zm-11 -8l-26 0 13 -13 13 13z"/>
  <polygon class="fil2" points="40,60 60,60 60,64 38,64 38,60 "/>
  <polygon class="fil2" points="4,60 24,60 26,60 26,64 4,64 "/>
  <path class="fil3" d="M56 38l-2 0 0 4 2 0 0 2 -6 0 0 4 6 0 0 2 -2 0 0 4 2 0 0 2 -6 0 0 4 -2 0 0 -4 -6 0 -2 0 0 -2 2 0 0 0 2 0 0 -4 -2 0 -2 0 0 -2 2 0 0 0 6 0 0 -4 -6 0 -2 0 0 -2 2 0 0 0 2 0 0 -4 -2 0 -20 0 -2 0 0 4 2 0 2 0 0 2 -2 0 -6 0 0 4 6 0 2 0 0 2 -2 0 -2 0 0 4 2 0 2 0 0 2 -2 0 0 0 -6 0 0 4 -2 0 0 -4 -6 0 0 -2 2 0 0 -4 -2 0 0 -2 6 0 0 -4 -6 0 0 -2 2 0 0 -4 -2 0 0 -2 8 0 0 -4 -5 0 2 -2 13 0 0 0 12 0 0 0 13 0 2 2 -5 0 0 4 8 0 0 2zm-14 -2l4 0 0 -4 -8 0 0 4 4 0zm-6 0l0 -4 -8 0 0 4 8 0zm-10 0l0 -4 0 0 0 0 -8 0 0 4 4 0 4 0zm-14 2l0 4 6 0 0 -4 -6 0zm0 12l0 4 6 0 0 -4 -6 0zm40 -12l-6 0 0 4 6 0 0 -4zm0 16l0 -4 -6 0 0 4 6 0z"/>
  <polygon class="fil4" points="64,35 62,35 32,5 2,35 0,35 0,32 32,0 32,0 64,32 "/>
  <polygon class="fil5" points="58,34 58,60 56,60 56,35 32,11 8,35 8,60 6,60 6,34 32,8 "/>
  <path class="fil5" d="M45 28l-26 0 13 -13 13 13zm-21 -2l8 -8 8 8 -16 0z"/>
  <path class="fil1" d="M82 61c-2,2 -4,3 -7,3 -3,0 -5,-1 -7,-3l0 -2c2,2 4,3 7,3 3,0 5,-1 7,-3l0 2z"/>
  <path class="fil1" d="M96 61c-2,2 -4,3 -7,3 -3,0 -5,-1 -7,-3l0 -2c2,2 4,3 7,3 3,0 5,-1 7,-3l0 2z"/>
  <path class="fil1" d="M110 61c-2,2 -4,3 -7,3 -3,0 -5,-1 -7,-3l0 -2c2,2 4,3 7,3 3,0 5,-1 7,-3l0 2z"/>
  <path class="fil1" d="M124 61c-2,2 -4,3 -7,3 -3,0 -5,-1 -7,-3l0 -2c2,2 4,3 7,3 3,0 5,-1 7,-3l0 2z"/>
  <g id="_718687824">
   <path class="fil1" d="M82 54c-2,2 -4,3 -7,3 -3,0 -5,-1 -7,-3l0 -2c2,2 4,3 7,3 3,0 5,-1 7,-3l0 2z"/>
   <path class="fil1" d="M96 54c-2,2 -4,3 -7,3 -3,0 -5,-1 -7,-3l0 -2c2,2 4,3 7,3 3,0 5,-1 7,-3l0 2z"/>
   <path class="fil1" d="M110 54c-2,2 -4,3 -7,3 -3,0 -5,-1 -7,-3l0 -2c2,2 4,3 7,3 3,0 5,-1 7,-3l0 2z"/>
   <path class="fil1" d="M124 54c-2,2 -4,3 -7,3 -3,0 -5,-1 -7,-3l0 -2c2,2 4,3 7,3 3,0 5,-1 7,-3l0 2z"/>
  </g>
  <g id="_718686416">
   <path class="fil1" d="M82 47c-2,2 -4,3 -7,3 -3,0 -5,-1 -7,-3l0 -2c2,2 4,3 7,3 3,0 5,-1 7,-3l0 2z"/>
   <path class="fil1" d="M96 47c-2,2 -4,3 -7,3 -3,0 -5,-1 -7,-3l0 -2c2,2 4,3 7,3 3,0 5,-1 7,-3l0 2z"/>
   <path class="fil1" d="M110 47c-2,2 -4,3 -7,3 -3,0 -5,-1 -7,-3l0 -2c2,2 4,3 7,3 3,0 5,-1 7,-3l0 2z"/>
   <path class="fil1" d="M124 47c-2,2 -4,3 -7,3 -3,0 -5,-1 -7,-3l0 -2c2,2 4,3 7,3 3,0 5,-1 7,-3l0 2z"/>
  </g>
  <g id="_718685008">
   <rect class="fil1" x="90" y="39" width="12.0002" height="1.99984"/>
   <rect class="fil1" x="90" y="31" width="12.0002" height="1.99984"/>
   <rect class="fil1" x="90" y="23" width="12.0002" height="1.99984"/>
   <rect class="fil1" x="102" y="17" width="1.99984" height="30.9999"/>
   <rect class="fil1" x="88" y="17" width="2.00012" height="30.9999"/>
  </g>
  <polygon class="fil4" points="128,35 126,35 96,5 66,35 64,35 64,32 96,0 96,0 128,32 "/>
  <polygon class="fil4" points="24,40 40,40 40,42 40,60 38,60 38,42 26,42 26,60 24,60 24,42 "/>
  <polygon class="fil1" points="40,26 32,18 24,26 "/>
  <path class="fil6" d="M36 20l3 0 0 0 3 0 0 4 -3 0 -3 0 -1 4 3 0 -1 3 -2 0 -1 5 2 0 0 0 0 0c1,0 2,0 2,-1l0 -2 0 0c0,-1 0,-2 -1,-2l0 0 1 -3c2,0 4,2 4,5l0 0 0 2 0 0c-1,3 -3,5 -6,5l0 0 -2 0 0 0 -1 0 0 -4 -3 0 2 -12 3 0 0 -4 1 0z"/>
  <path class="fil7" d="M27 36l6 0 0 4 -7 0c-2,0 -4,-2 -4,-5l1 -10 0 0c1,-3 3,-5 6,-5l6 0 0 4 -7 0 0 0 0 0c0,0 -1,0 -1,1l0 0 -1 10c0,1 0,1 1,1l0 0 0 0z"/>
 </g>
</svg>
