<?xml version="1.0" encoding="UTF-8"?>
<!DOCTYPE svg PUBLIC "-//W3C//DTD SVG 1.1//EN" "http://www.w3.org/Graphics/SVG/1.1/DTD/svg11.dtd">
<!-- Creator: CorelDRAW X8 -->
<svg xmlns="http://www.w3.org/2000/svg" xml:space="preserve" width="144px" height="72px" version="1.1" style="shape-rendering:geometricPrecision; text-rendering:geometricPrecision; image-rendering:optimizeQuality; fill-rule:evenodd; clip-rule:evenodd"
viewBox="0 0 144 72"
 xmlns:xlink="http://www.w3.org/1999/xlink">
 <defs>
  <style type="text/css">
   <![CDATA[
    .fil0 {fill:none}
    .fil2 {fill:#147EC7}
    .fil1 {fill:white}
   ]]>
  </style>
 </defs>
 <g id="Слой_x0020_1">
  <metadata id="CorelCorpID_0Corel-Layer"/>
  <rect class="fil0" width="144" height="71.9997"/>
  <path class="fil1" d="M29 30l0 5 6 0 0 -6 -6 0 0 0c0,-8 6,-14 13,-14l0 14 -5 0 0 6 6 0 0 -6 0 0c8,0 14,6 14,13l-14 0 0 -5 -6 0 0 6 6 0 0 0c0,8 -6,14 -13,14l0 -14 5 0 0 -6 -6 0 0 6 0 0c-8,0 -14,-6 -14,-13l14 0zm0 -1l6 0 0 -2 2 0 0 2 6 0 0 6 2 0 0 2 -2 0 0 6 -6 0 0 2 -2 0 0 -2 -6 0 0 -6 -2 0 0 -2 2 0 0 -6zm1 28l-1 0 0 -14 1 0 0 14zm13 -15l14 0 0 1 -14 0 0 -1zm-1 -27l1 0 0 14 -1 0 0 -14zm-13 15l-14 0 0 -1 14 0 0 1z"/>
  <path class="fil2" d="M36 0c20,0 36,16 36,36l-14 0c0,-12 -10,-22 -22,-22 -12,0 -22,10 -22,22 0,12 10,22 22,22l0 14c-20,0 -36,-16 -36,-36 0,-20 16,-36 36,-36zm0 58l9 0 0 14 -9 0 0 -14zm22 14c0,-8 -6,-14 -13,-14l0 14 13 0zm0 -36l14 0 0 22 -14 0 0 -22zm0 22c0,8 6,14 14,14l0 -14 -14 0z"/>
  <path class="fil1" d="M130 36l14 0 0 36 -36 0 0 -14c-12,0 -22,-10 -22,-22 0,-12 10,-22 22,-22 12,0 22,10 22,22z"/>
  <path class="fil2" d="M108 0c20,0 36,16 36,36l-14 0c0,-12 -10,-22 -22,-22 -12,0 -22,10 -22,22 0,12 10,22 22,22l0 14c-20,0 -36,-16 -36,-36 0,-20 16,-36 36,-36zm0 58l9 0 0 14 -9 0 0 -14zm22 14c0,-8 -6,-14 -13,-14l0 14 13 0zm0 -36l14 0 0 22 -14 0 0 -22zm0 22c0,8 6,14 14,14l0 -14 -14 0z"/>
 </g>
</svg>
