<?xml version="1.0" encoding="UTF-8"?>
<!DOCTYPE svg PUBLIC "-//W3C//DTD SVG 1.1//EN" "http://www.w3.org/Graphics/SVG/1.1/DTD/svg11.dtd">
<!-- Creator: CorelDRAW X8 -->
<svg xmlns="http://www.w3.org/2000/svg" xml:space="preserve" width="72px" height="72px" version="1.1" style="shape-rendering:geometricPrecision; text-rendering:geometricPrecision; image-rendering:optimizeQuality; fill-rule:evenodd; clip-rule:evenodd"
viewBox="0 0 72 72"
 xmlns:xlink="http://www.w3.org/1999/xlink">
 <defs>
  <style type="text/css">
   <![CDATA[
    .fil0 {fill:none}
    .fil1 {fill:#168DDE}
   ]]>
  </style>
 </defs>
 <g id="Слой_x0020_1">
  <metadata id="CorelCorpID_0Corel-Layer"/>
  <rect class="fil0" width="71.9999" height="71.9997"/>
  <path class="fil1" d="M43 42l0 -4 3 0 0 -4 -3 0 0 -4 0 0c7,0 13,5 13,12l-13 0zm0 0l-1 0 0 -4 1 0 0 4zm-1 -8l0 -4 1 0 0 4 -1 0zm-13 -4l0 4 -3 0 0 4 3 0 0 4 0 0c-7,0 -13,-5 -13,-12l13 0zm1 12l-1 0 0 -4 1 0 0 4zm-1 -8l0 -4 1 0 0 4 -1 0zm1 9l4 0 0 3 4 0 0 -3 4 0 0 0c0,7 -5,13 -12,13l0 -13zm12 0l-4 0 0 -1 4 0 0 1zm-8 0l-4 0 0 -1 4 0 0 1zm8 -14l-4 0 0 -3 -4 0 0 3 -4 0 0 0c0,-7 5,-13 12,-13l0 13zm0 1l-4 0 0 -1 -4 0 0 1 -4 0 0 -1 12 0 0 1zm-12 0l4 0 0 4 -4 0 0 -4zm8 0l4 0 0 4 -4 0 0 -4zm4 8l0 4 -4 0 0 -4 4 0zm-8 4l-4 0 0 -4 4 0 0 4z"/>
 </g>
</svg>
