<?xml version="1.0" encoding="UTF-8"?>
<!DOCTYPE svg PUBLIC "-//W3C//DTD SVG 1.1//EN" "http://www.w3.org/Graphics/SVG/1.1/DTD/svg11.dtd">
<!-- Creator: CorelDRAW X8 -->
<svg xmlns="http://www.w3.org/2000/svg" xml:space="preserve" width="300px" height="150px" version="1.1" style="shape-rendering:geometricPrecision; text-rendering:geometricPrecision; image-rendering:optimizeQuality; fill-rule:evenodd; clip-rule:evenodd"
viewBox="0 0 300 150"
 xmlns:xlink="http://www.w3.org/1999/xlink">
 <defs>
  <style type="text/css">
   <![CDATA[
    .fil0 {fill:none}
    .fil1 {fill:white}
   ]]>
  </style>
 </defs>
 <g id="Слой_x0020_1">
  <metadata id="CorelCorpID_0Corel-Layer"/>
  <polygon class="fil0" points="0,0 300,0 300,150 0,150 "/>
  <path class="fil1" d="M90 90c0,15 -12,27 -27,27l-3 0 0 -27c-15,0 -27,-12 -27,-27l0 -3 27 0 0 0 0 0 0 0c0,-15 12,-27 27,-27l0 0 0 0 3 0 0 27 0 0c15,0 27,12 27,27l0 3 -27 0zm-30 -3l0 0c-13,0 -24,-11 -24,-24l24 0 0 0 3 0 0 -3 0 0 0 0c0,-13 11,-24 24,-24l0 0 0 24 0 3 3 0c13,0 24,11 24,24l0 0 -24 0 -3 0 0 3 0 0c0,13 -11,24 -24,24l0 -24 0 -3 -3 0zm-3 -18l12 0 0 -12 12 0 0 12 12 0 0 12 -12 0 0 12 -12 0 0 -12 -12 0 0 -12zm21 3l6 0 0 0 6 0 0 6 -6 0 0 0 -6 0 0 6 0 0 0 6 -6 0 0 -6 0 0 0 -6 -6 0 0 0 -6 0 0 -6 6 0 0 0 6 0 0 -6 0 -6 6 0 0 6 0 6z"/>
  <path class="fil1" d="M150 117l0 3 0 30 -3 0c-17,0 -30,-13 -30,-30l0 0 0 -3 0 -42 0 0c0,-23 -19,-42 -42,-42 -23,0 -42,19 -42,42 0,23 19,42 42,42l0 0 0 0 18 0c17,0 30,13 30,30l0 3 -48 0 0 0c-41,0 -75,-34 -75,-75 0,-41 34,-75 75,-75 41,0 75,34 75,75l0 0 0 42zm-3 -42l0 45 0 27c-15,0 -27,-12 -27,-27l0 -45c0,-25 -20,-45 -45,-45 -25,0 -45,20 -45,45 0,25 20,45 45,45l0 0 18 0c15,0 27,12 27,27l0 0 -27 0 -18 0 0 0c-40,0 -72,-32 -72,-72 0,-40 32,-72 72,-72 40,0 72,32 72,72z"/>
  <path class="fil1" d="M300 117l0 3 0 30 -3 0c-17,0 -30,-13 -30,-30l0 0 0 -3 0 -42 0 0c0,-23 -19,-42 -42,-42 -23,0 -42,19 -42,42 0,23 19,42 42,42l0 0 0 0 18 0c17,0 30,13 30,30l0 3 -48 0 0 0c-41,0 -75,-34 -75,-75 0,-41 34,-75 75,-75 41,0 75,34 75,75l0 0 0 42zm-3 -42l0 45 0 27c-15,0 -27,-12 -27,-27l0 -45c0,-25 -20,-45 -45,-45 -25,0 -45,20 -45,45 0,25 20,45 45,45l0 0 18 0c15,0 27,12 27,27l0 0 -27 0 -18 0 0 0c-40,0 -72,-32 -72,-72 0,-40 32,-72 72,-72 40,0 72,32 72,72z"/>
 </g>
</svg>
