<?xml version="1.0" encoding="UTF-8"?>
<!DOCTYPE svg PUBLIC "-//W3C//DTD SVG 1.1//EN" "http://www.w3.org/Graphics/SVG/1.1/DTD/svg11.dtd">
<!-- Creator: CorelDRAW X8 -->
<svg xmlns="http://www.w3.org/2000/svg" xml:space="preserve" width="150px" height="150px" version="1.1" style="shape-rendering:geometricPrecision; text-rendering:geometricPrecision; image-rendering:optimizeQuality; fill-rule:evenodd; clip-rule:evenodd"
viewBox="0 0 150 150"
 xmlns:xlink="http://www.w3.org/1999/xlink">
 <defs>
  <style type="text/css">
   <![CDATA[
    .fil1 {fill:none}
    .fil0 {fill:white}
   ]]>
  </style>
 </defs>
 <g id="Слой_x0020_1">
  <metadata id="CorelCorpID_0Corel-Layer"/>
  <path class="fil0" d="M90 90c0,15 -12,27 -27,27l-3 0 0 -27c-15,0 -27,-12 -27,-27l0 -3 27 0 0 0 0 0 0 0c0,-15 12,-27 27,-27l0 0 0 0 3 0 0 27 0 0c15,0 27,12 27,27l0 3 -27 0zm-30 -3l0 0c-13,0 -24,-11 -24,-24l24 0 0 0 3 0 0 -3 0 0 0 0c0,-13 11,-24 24,-24l0 0 0 24 0 3 3 0c13,0 24,11 24,24l0 0 -24 0 -3 0 0 3 0 0c0,13 -11,24 -24,24l0 -24 0 -3 -3 0zm-3 -18l12 0 0 -12 12 0 0 12 12 0 0 12 -12 0 0 12 -12 0 0 -12 -12 0 0 -12zm21 3l6 0 0 0 6 0 0 6 -6 0 0 0 -6 0 0 6 0 0 0 6 -6 0 0 -6 0 0 0 -6 -6 0 0 0 -6 0 0 -6 6 0 0 0 6 0 0 -6 0 -6 6 0 0 6 0 6z"/>
  <rect class="fil1" width="150" height="150"/>
 </g>
</svg>
