<?xml version="1.0" encoding="UTF-8"?>
<!DOCTYPE svg PUBLIC "-//W3C//DTD SVG 1.1//EN" "http://www.w3.org/Graphics/SVG/1.1/DTD/svg11.dtd">
<!-- Creator: CorelDRAW X8 -->
<svg xmlns="http://www.w3.org/2000/svg" xml:space="preserve" width="192px" height="72px" version="1.1" style="shape-rendering:geometricPrecision; text-rendering:geometricPrecision; image-rendering:optimizeQuality; fill-rule:evenodd; clip-rule:evenodd"
viewBox="0 0 192 72"
 xmlns:xlink="http://www.w3.org/1999/xlink">
 <defs>
  <style type="text/css">
   <![CDATA[
    .fil8 {fill:#8B3589}
    .fil3 {fill:#147EC7}
    .fil4 {fill:#168DDE}
    .fil2 {fill:white}
    .fil0 {fill:#147EC7;fill-opacity:0.850980}
    .fil1 {fill:#168DDE;fill-opacity:0.850980}
    .fil6 {fill:whitesmoke}
    .fil7 {fill:#FAFAFA}
    .fil5 {fill:white}
   ]]>
  </style>
 </defs>
 <g id="Слой_x0020_1">
  <metadata id="CorelCorpID_0Corel-Layer"/>
  <path class="fil0" d="M8 72l80 0c4,0 8,-4 8,-8l0 -28 -96 0 0 28c0,4 4,8 8,8z"/>
  <path class="fil1" d="M8 0l80 0c4,0 8,4 8,8l0 28 -96 0 0 -28c0,-4 4,-8 8,-8z"/>
  <path class="fil2" d="M39 3c25,-7 49,3 54,21 5,18 -11,39 -36,45 -24,6 -47,-3 -52,-21 -5,-19 10,-39 34,-45zm18 66c-25,7 -49,-3 -54,-21 -5,-18 11,-39 36,-45 24,-6 47,3 52,21 5,19 -10,39 -34,45z"/>
  <path class="fil2" d="M40 5c22,-7 45,3 49,20 5,16 -10,35 -33,41 -23,6 -45,-2 -49,-19 -5,-17 10,-36 33,-42zm49 20c5,17 -10,36 -33,42 -22,7 -45,-3 -49,-20 -5,-16 10,-35 33,-41 23,-6 45,2 49,19z"/>
  <path class="fil3" d="M104 72l88 0 0 -36 -96 0 0 28c0,4 4,8 8,8z"/>
  <path class="fil4" d="M104 0l80 0c4,0 8,4 8,8l0 28 -96 0 0 -28c0,-4 4,-8 8,-8z"/>
  <path class="fil2" d="M135 3c25,-7 49,3 54,21 5,18 -11,39 -36,45 -24,6 -47,-3 -52,-21 -5,-19 10,-39 34,-45zm18 66c-25,7 -49,-3 -54,-21 -5,-18 11,-39 36,-45 24,-6 47,3 52,21 5,19 -10,39 -34,45z"/>
  <path class="fil2" d="M136 5c22,-7 45,3 49,20 5,16 -10,35 -33,41 -23,6 -45,-2 -49,-19 -5,-17 10,-36 33,-42zm49 20c5,17 -10,36 -33,42 -22,7 -45,-3 -49,-20 -5,-16 10,-35 33,-41 23,-6 45,2 49,19z"/>
  <g id="_716288784">
   <path class="fil5" d="M190 63l0 8 0 0 0 -8 -8 -7 -7 7 0 8 0 0 0 -8 7 -8 8 8zm0 1l0 7 -5 0 0 -7 -6 0 0 7 -4 0 0 -7 0 -1 7 -7 8 7 0 1zm-4 -3l-7 0 3 -4 4 4zm0 0l-7 0 3 -4 4 4zm-6 0l2 -3 3 3 -5 0zm0 10l-1 0 0 -7 0 0 6 0 0 0 0 7 0 0 0 -7 -5 0 0 7z"/>
   <path class="fil6" d="M174 71l5 0 1 0 0 1 -6 0 0 -1zm11 0l6 0 0 1 -6 0 0 -1 0 0z"/>
   <path class="fil7" d="M190 64l-1 0 0 1 1 0 0 1 -2 0 0 1 2 0 0 1 -1 0 0 1 1 0 0 1 -2 0 0 1 -1 0 0 -1 -2 0 0 -1 1 0 0 -1 -1 0 0 -1 2 0 0 -1 -2 0 0 -1 1 0 0 -1 -1 0 0 0 2 0 0 -2 -3 0 0 2 0 0 0 -2 -3 0 0 2 0 0 0 -2 0 0 0 0 -3 0 0 2 1 0 0 0 0 0 0 1 0 0 0 1 -1 0 0 1 1 0 0 1 0 0 0 1 0 0 0 1 -1 0 0 1 -1 0 0 -1 -2 0 0 -1 1 0 0 -1 -1 0 0 -1 2 0 0 -1 -2 0 0 -1 1 0 0 -1 -1 0 0 0 3 0 0 -2 -2 0 1 0 4 0 0 0 3 0 0 0 4 0 1 0 -2 0 0 2 3 0 0 0zm-14 0l0 1 2 0 0 -1 -2 0zm0 4l0 1 2 0 0 -1 -2 0zm12 -4l-1 0 0 1 1 0 0 -1zm0 5l0 -1 -1 0 0 1 1 0z"/>
   <polygon class="fil2" points="192,63 191,63 182,54 173,63 173,63 173,62 182,53 182,53 192,62 "/>
  </g>
  <path class="fil8" d="M-33 62c4,0 8,4 8,8l0 -8 -8 0z"/>
 </g>
</svg>
