<?xml version="1.0" encoding="UTF-8"?>
<!DOCTYPE svg PUBLIC "-//W3C//DTD SVG 1.1//EN" "http://www.w3.org/Graphics/SVG/1.1/DTD/svg11.dtd">
<!-- Creator: CorelDRAW X8 -->
<svg xmlns="http://www.w3.org/2000/svg" xml:space="preserve" width="72px" height="64px" version="1.1" style="shape-rendering:geometricPrecision; text-rendering:geometricPrecision; image-rendering:optimizeQuality; fill-rule:evenodd; clip-rule:evenodd"
viewBox="0 0 72 64"
 xmlns:xlink="http://www.w3.org/1999/xlink">
 <defs>
  <style type="text/css">
   <![CDATA[
    .str0 {stroke:white;stroke-width:1.99984}
    .fil0 {fill:none}
    .fil1 {fill:white}
   ]]>
  </style>
 </defs>
 <g id="Слой_x0020_1">
  <metadata id="CorelCorpID_0Corel-Layer"/>
  <path class="fil0" d="M1 60l0 0c0,2 1,3 3,3l0 0 28 0 0 0c2,0 3,-1 3,-3l0 -3 0 -50 0 0 0 -3 0 0c0,-2 -1,-3 -3,-3l0 0 -28 0 0 0c-2,0 -3,1 -3,3l0 3 0 50 0 0 0 3z"/>
  <rect class="fil0" x="16" y="3" width="4.00025" height="0.968598"/>
  <g id="_709611456">
   <path class="fil0" d="M21 58c1,0 2,1 2,2 0,0 -1,1 -2,1l0 -1 1 0 0 -1 -1 0 0 -1zm1 1c0,0 0,0 0,0 0,1 0,1 0,1l0 -1z"/>
   <path class="fil0" d="M15 61c-1,0 -2,-1 -2,-1 0,-1 1,-2 2,-2l0 1 -1 0c0,0 0,0 0,0 0,1 0,1 0,1l1 0 0 1z"/>
   <path class="fil0" d="M15 58l7 0 0 1 -7 0 0 -1zm7 2l0 1 -7 0 0 -1 7 0z"/>
  </g>
  <g id="_709608672">
   <path class="fil0" d="M4 64c-2,0 -4,-2 -4,-4l1 0c0,2 1,3 3,3l0 1z"/>
   <path class="fil0" d="M36 60c0,2 -2,4 -4,4l0 -1c2,0 3,-1 3,-3l1 0z"/>
   <path class="fil0" d="M32 0c2,0 4,2 4,4l-1 0c0,-2 -1,-3 -3,-3l0 -1z"/>
   <path class="fil0" d="M0 4c0,-2 2,-4 4,-4l0 1c-2,0 -3,1 -3,3l-1 0z"/>
   <rect class="fil0" x="4" width="28.0414" height="1.00035"/>
   <rect class="fil0" x="4" y="63" width="28.0414" height="1.00035"/>
   <rect class="fil0" y="4" width="1.00006" height="56.0001"/>
   <rect class="fil0" x="35" y="4" width="1.00006" height="56.0001"/>
  </g>
  <path class="fil0" d="M2 6l32 0 0 50 -32 0 0 -50zm1 1l30 0 0 48 -30 0 0 -48z"/>
  <rect class="fil0" x="3" y="7" width="29.9999" height="48.0002"/>
  <path class="fil1" d="M0 35l36 0 0 26 -36 0 0 -26zm1 1l34 0 0 24 -34 0 0 -24z"/>
  <rect class="fil0" x="6" y="35" width="24.0001" height="16.9999"/>
  <polygon class="fil1" points="13,49 1,61 0,60 12,48 13,48 "/>
  <polygon class="fil1" points="24,48 36,60 35,61 23,49 23,48 "/>
  <polygon class="fil1" points="18,51 35,35 36,36 19,53 18,54 "/>
  <polygon class="fil1" points="17,53 0,36 1,35 18,51 18,54 "/>
  <g id="_709601184">
   <g>
    <g>
     <path class="fil0 str0" d="M35 24c0,0 -2,-3 -7,-5 -1,0 -1,0 -1,1 -2,1 -4,2 -5,2 -7,-2 -11,-8 -11,-9 0,-1 2,-3 3,-4 1,-1 1,-1 1,-1 -1,-5 -6,-7 -6,-7 0,0 -1,0 -1,0 -6,1 -7,4 -7,4 0,0 0,1 0,1 7,20 23,24 28,25l1 0 0 0 0 0c0,0 4,-2 5,-6 0,-1 0,-1 0,-1z"/>
    </g>
   </g>
   <g>
   </g>
   <g>
   </g>
   <g>
   </g>
   <g>
   </g>
   <g>
   </g>
   <g>
   </g>
   <g>
   </g>
   <g>
   </g>
   <g>
   </g>
   <g>
   </g>
   <g>
   </g>
   <g>
   </g>
   <g>
   </g>
   <g>
   </g>
   <g>
   </g>
  </g>
  <path class="fil0" d="M37 60l0 0c0,2 1,3 3,3l0 0 28 0 0 0c2,0 3,-1 3,-3l0 -3 0 -50 0 0 0 -3 0 0c0,-2 -1,-3 -3,-3l0 0 -28 0 0 0c-2,0 -3,1 -3,3l0 3 0 50 0 0 0 3z"/>
  <rect class="fil0" x="52" y="3" width="4.00025" height="0.968598"/>
  <g id="_709597568">
   <g>
    <path class="fil0" d="M57 58c1,0 2,1 2,2 0,0 -1,1 -2,1l0 -3z"/>
    <path class="fil0" d="M50 61c0,0 -1,-1 -1,-1 0,-1 1,-2 1,-2l0 3z"/>
    <rect class="fil0" x="50" y="58" width="7.00016" height="2.99991"/>
   </g>
   <g>
    <path class="fil0" d="M58 59c0,0 0,0 0,0 0,1 0,1 0,1l0 -1z"/>
    <rect class="fil0" x="50" y="59" width="7.00016" height="1.00006"/>
    <path class="fil0" d="M50 59l0 0 0 1 0 0c0,0 0,0 0,-1 0,0 0,0 0,0z"/>
   </g>
  </g>
  <g id="_709594784">
   <path class="fil0" d="M40 64c-2,0 -4,-2 -4,-4l1 0c0,2 1,3 3,3l0 1z"/>
   <path class="fil0" d="M72 60c0,2 -2,4 -4,4l0 -1c2,0 3,-1 3,-3l1 0z"/>
   <path class="fil0" d="M68 0c2,0 4,2 4,4l-1 0c0,-2 -1,-3 -3,-3l0 -1z"/>
   <path class="fil0" d="M36 4c0,-2 2,-4 4,-4l0 1c-2,0 -3,1 -3,3l-1 0z"/>
   <rect class="fil0" x="40" width="28.0414" height="1.00035"/>
   <rect class="fil0" x="40" y="63" width="28.0414" height="1.00035"/>
   <rect class="fil0" x="36" y="4" width="1.00006" height="56.0001"/>
   <rect class="fil0" x="71" y="4" width="1.00006" height="56.0001"/>
  </g>
  <path class="fil0" d="M38 6l32 0 0 50 -32 0 0 -50zm1 1l30 0 0 48 -30 0 0 -48z"/>
  <rect class="fil0" x="39" y="7" width="29.9999" height="48.0002"/>
  <rect class="fil0" x="41" y="18" width="25.9999" height="25.9999"/>
  <path class="fil1" d="M36 13l11 0 0 11 -11 0 0 -11zm33 13l1 0 0 3 -1 0 0 2 0 0 0 2 3 0 0 1 -3 0 0 4 0 1 0 0 0 2 -2 0 0 1 5 0 0 2 -5 0 0 2 2 0 0 3 -2 0 0 -3 -3 0 0 3 -2 0 0 -3 -1 0 0 3 -2 0 0 -3 -2 0 0 -2 -3 0 0 -2 0 0 0 4 -3 0 0 -4 1 0 0 -1 -1 0 0 -2 -2 0 0 -1 2 0 0 1 1 0 0 -5 -1 0 0 2 -2 0 0 -2 -3 0 0 -1 1 0 0 -2 -3 0 0 3 -1 0 0 0 -2 0 -2 0 0 -1 -1 0 0 1 -2 0 0 -6 2 0 0 3 1 0 0 -3 2 0 0 1 2 0 0 2 1 0 0 -2 5 0 0 -1 2 0 0 -2 -2 0 0 -3 2 0 0 3 3 0 0 -2 -2 0 0 -1 0 0 0 -2 0 -1 -1 0 0 1 -2 0 0 -1 2 0 0 -2 -2 0 0 -2 2 0 0 2 3 0 0 2 2 0 0 1 0 2 3 0 0 1 -3 0 0 2 -2 0 0 2 5 0 0 -2 2 0 0 2 -2 0 0 1 2 0 1 0 0 -3 2 0 0 3 -2 0 0 4 3 0 0 -2 2 0 0 -2 -2 0 0 -3 2 0 0 2 2 0 0 -2zm-2 7l-2 0 0 1 2 0 0 -1zm-2 5l0 -4 -1 0 0 2 -2 0 0 -2 0 -1 -1 0 0 -2 -2 0 0 -2 -3 0 0 2 0 2 0 0 0 1 1 0 0 4 -1 0 0 1 -2 0 -2 0 0 2 2 0 0 1 2 0 0 -1 0 0 0 -2 3 0 0 2 2 0 0 1 -2 0 0 2 3 0 0 -3 2 0 0 3 3 0 0 -2 -2 0 0 -1 2 0 0 -2 -5 0 0 -1 3 0zm-6 -2l2 0 0 2 -2 0 0 -2zm-3 0l0 -2 -2 0 0 2 2 0zm-4 -3l0 -2 0 -2 2 0 0 -1 -3 0 0 1 0 2 0 0 0 2 1 0zm2 -9l2 0 0 -1 -2 0 0 1zm2 -9l3 0 0 1 -5 0 0 -1 -2 0 0 -2 4 0 0 2zm1 26l0 1 2 0 0 -1 -2 0zm-3 5l3 0 0 1 -3 0 0 -1zm-10 -20l3 0 0 2 -3 0 0 -2zm5 -13l2 0 0 2 -2 0 0 -2zm-13 25l11 0 0 11 -11 0 0 -11zm3 3l5 0 0 5 -5 0 0 -5zm-1 -2l8 0 0 8 -8 0 0 -8zm23 -26l11 0 0 11 -11 0 0 -11zm3 3l5 0 0 5 -5 0 0 -5zm-2 -1l8 0 0 8 -8 0 0 -8zm-23 1l5 0 0 5 -5 0 0 -5zm-1 -1l8 0 0 8 -8 0 0 -8z"/>
 </g>
</svg>
