<?xml version="1.0" encoding="UTF-8"?>
<!DOCTYPE svg PUBLIC "-//W3C//DTD SVG 1.1//EN" "http://www.w3.org/Graphics/SVG/1.1/DTD/svg11.dtd">
<!-- Creator: CorelDRAW X8 -->
<svg xmlns="http://www.w3.org/2000/svg" xml:space="preserve" width="128px" height="64px" version="1.1" style="shape-rendering:geometricPrecision; text-rendering:geometricPrecision; image-rendering:optimizeQuality; fill-rule:evenodd; clip-rule:evenodd"
viewBox="0 0 128 64"
 xmlns:xlink="http://www.w3.org/1999/xlink">
 <defs>
  <style type="text/css">
   <![CDATA[
    .str0 {stroke:#FFFF66;stroke-width:0.708661}
    .fil0 {fill:none}
    .fil3 {fill:#333333}
    .fil1 {fill:#666666}
    .fil2 {fill:#999999}
    .fil6 {fill:#CCCCCC}
    .fil5 {fill:#FAFAFA}
    .fil4 {fill:white}
   ]]>
  </style>
 </defs>
 <g id="Слой_x0020_1">
  <metadata id="CorelCorpID_0Corel-Layer"/>
  <rect class="fil0" width="128" height="64"/>
  <path class="fil1" d="M60 22c2,0 4,2 4,4l0 0 0 4 -64 0 0 -4c0,-2 2,-4 4,-4l56 0 0 0zm4 32l0 4c0,2 -2,4 -4,4l-56 0c-2,0 -4,-2 -4,-4l0 -4 64 0z"/>
  <rect class="fil2" y="30" width="63.9994" height="24.0001"/>
  <path class="fil1" d="M42 14c2,0 4,2 4,4l0 4 -4 0 -20 0 -4 0 0 -4c0,-2 2,-4 4,-4l20 0 0 0z"/>
  <rect class="fil3" x="6" y="20" width="7.99993" height="2.00012"/>
  <rect class="fil3" x="50" y="20" width="7.99993" height="2.00012"/>
  <path class="fil1" d="M124 22c2,0 4,2 4,4l0 0 0 4 -64 0 0 -4c0,-2 2,-4 4,-4l56 0 0 0zm4 32l0 4c0,2 -2,4 -4,4l-56 0c-2,0 -4,-2 -4,-4l0 -4 64 0z"/>
  <rect class="fil2" x="64" y="30" width="63.9994" height="24.0001"/>
  <rect class="fil3" x="70" y="20" width="7.99993" height="2.00012"/>
  <rect class="fil3" x="114" y="20" width="7.99993" height="2.00012"/>
  <path class="fil1" d="M106 16c2,0 4,-2 4,-4l0 -4 0 0 0 -4c0,-2 -2,-4 -4,-4l0 0 -20 0c-2,0 -4,2 -4,4l0 4 0 4 0 0c0,2 2,4 4,4l20 0z"/>
  <rect class="fil1" x="82" y="12" width="5.99981" height="9.99977"/>
  <rect class="fil1" x="104" y="12" width="5.87111" height="9.9513"/>
  <path class="fil4" d="M108 11c0,2 -1,3 -3,3l-18 0 0 0c-2,0 -3,-1 -3,-3l0 0 0 -6c0,-2 1,-3 3,-3l18 0 0 0c2,0 3,1 3,3l0 0 0 6z"/>
  <circle class="fil3" cx="32" cy="42" r="22"/>
  <path class="fil5" d="M32 22c11,0 20,9 20,20 0,11 -9,20 -20,20 -11,0 -20,-9 -20,-20 0,-11 9,-20 20,-20zm0 4c9,0 16,7 16,16 0,9 -7,16 -16,16 -9,0 -16,-7 -16,-16 0,-9 7,-16 16,-16z"/>
  <circle class="fil1" cx="32" cy="42" r="16"/>
  <path class="fil5" d="M32 28c8,0 14,6 14,14 0,8 -6,14 -14,14 -8,0 -14,-6 -14,-14 0,-8 6,-14 14,-14zm0 4c6,0 10,4 10,10 0,6 -4,10 -10,10 -6,0 -10,-4 -10,-10 0,-6 4,-10 10,-10z"/>
  <circle class="fil2" cx="32" cy="42" r="10"/>
  <path class="fil4" d="M32 34c4,0 8,4 8,8 0,0 0,0 0,0 0,1 0,1 -1,1 -1,0 -1,0 -1,-1 0,-3 -3,-6 -6,-6 -1,0 -1,0 -1,-1 0,-1 0,-1 1,-1l0 0z"/>
  <rect class="fil1" y="30" width="2.00012" height="24.0001"/>
  <rect class="fil1" x="62" y="30" width="2.00012" height="24.0001"/>
  <circle class="fil3" cx="96" cy="42" r="22"/>
  <path class="fil5" d="M96 22c11,0 20,9 20,20 0,11 -9,20 -20,20 -11,0 -20,-9 -20,-20 0,-11 9,-20 20,-20zm0 4c9,0 16,7 16,16 0,9 -7,16 -16,16 -9,0 -16,-7 -16,-16 0,-9 7,-16 16,-16z"/>
  <circle class="fil1" cx="96" cy="42" r="16"/>
  <path class="fil5" d="M96 28c8,0 14,6 14,14 0,8 -6,14 -14,14 -8,0 -14,-6 -14,-14 0,-8 6,-14 14,-14zm0 4c6,0 10,4 10,10 0,6 -4,10 -10,10 -6,0 -10,-4 -10,-10 0,-6 4,-10 10,-10z"/>
  <circle class="fil6" cx="96" cy="42" r="10"/>
  <polygon class="fil0 str0" points="96,0 97,4 101,1 100,5 106,2 102,6 109,5 103,7 110,8 103,9 109,11 102,10 106,14 100,11 101,15 97,12 96,16 94,12 91,15 92,11 86,14 90,10 83,11 89,9 82,8 89,7 83,5 90,6 86,2 92,5 91,1 94,4 "/>
  <path class="fil4" d="M96 34c4,0 8,4 8,8 0,0 0,0 0,0 0,1 0,1 -1,1 -1,0 -1,0 -1,-1 0,-3 -3,-6 -6,-6 -1,0 -1,0 -1,-1 0,-1 0,-1 1,-1l0 0z"/>
  <rect class="fil1" x="64" y="30" width="1.99984" height="24.0001"/>
  <rect class="fil1" x="126" y="30" width="1.99956" height="24.0001"/>
 </g>
</svg>
