<?xml version="1.0" encoding="UTF-8"?>
<!DOCTYPE svg PUBLIC "-//W3C//DTD SVG 1.1//EN" "http://www.w3.org/Graphics/SVG/1.1/DTD/svg11.dtd">
<!-- Creator: CorelDRAW X8 -->
<svg xmlns="http://www.w3.org/2000/svg" xml:space="preserve" width="72px" height="64px" version="1.1" style="shape-rendering:geometricPrecision; text-rendering:geometricPrecision; image-rendering:optimizeQuality; fill-rule:evenodd; clip-rule:evenodd"
viewBox="0 0 72 64"
 xmlns:xlink="http://www.w3.org/1999/xlink">
 <defs>
  <style type="text/css">
   <![CDATA[
    .fil1 {fill:black}
    .fil2 {fill:#333333}
    .fil0 {fill:#8E8E8E}
    .fil3 {fill:#E8E8E8}
    .fil6 {fill:#FAFA33}
    .fil5 {fill:#FFFF66}
    .fil4 {fill:white}
    .fil7 {fill:url(#id5)}
   ]]>
  </style>
    <clipPath id="id0">
     <path d="M5 18l26 0 0 26 0 0 0 -13c0,-7 -6,-13 -13,-13 -7,0 -13,6 -13,12l0 2c0,6 5,11 12,12l2 0c7,-1 12,-6 12,-13l0 -13 -26 0 0 0z"/>
    </clipPath>
    <clipPath id="id1">
     <path d="M18 25c6,0 12,3 12,6 0,3 -6,5 -12,5 -6,0 -12,-2 -12,-5 0,-3 6,-6 12,-6z"/>
    </clipPath>
    <clipPath id="id2">
     <path d="M18 31c4,0 8,1 10,2 -2,2 -6,3 -10,3 -4,0 -8,-1 -10,-3 2,-1 6,-2 10,-2z"/>
    </clipPath>
   <mask id="id3">
  <linearGradient id="id4" gradientUnits="userSpaceOnUse" x1="6.44446" y1="31.2092" x2="29.5555" y2="31.2092">
   <stop offset="0" style="stop-opacity:0.701961; stop-color:white"/>
   <stop offset="0.501961" style="stop-opacity:122.125; stop-color:white"/>
   <stop offset="1" style="stop-opacity:1; stop-color:white"/>
  </linearGradient>
    <rect style="fill:url(#id4)" x="6" y="26" width="23.1109" height="9.69335"/>
   </mask>
  <linearGradient id="id5" gradientUnits="userSpaceOnUse" x1="18" y1="26.3626" x2="18" y2="36.0558">
   <stop offset="0" style="stop-opacity:1; stop-color:#78BEFF"/>
   <stop offset="1" style="stop-opacity:1; stop-color:#DCF0FF"/>
  </linearGradient>
 </defs>
 <g id="Слой_x0020_1">
  <metadata id="CorelCorpID_0Corel-Layer"/>
  <path class="fil0" d="M1 60l0 0c0,2 1,3 3,3l0 0 28 0 0 0c2,0 3,-1 3,-3l0 -3 0 -50 0 0 0 -3 0 0c0,-2 -1,-3 -3,-3l0 0 -28 0 0 0c-2,0 -3,1 -3,3l0 3 0 50 0 0 0 3z"/>
  <rect class="fil1" x="16" y="3" width="4.00025" height="0.968598"/>
  <g id="_723847472">
   <g>
    <path class="fil1" d="M21 58c1,0 2,1 2,2 0,0 -1,1 -2,1l0 -3z"/>
    <path class="fil1" d="M15 61c-1,0 -2,-1 -2,-1 0,-1 1,-2 2,-2l0 3z"/>
    <rect class="fil1" x="15" y="58" width="7.00016" height="2.99991"/>
   </g>
   <g>
    <path class="fil2" d="M22 59c0,0 0,0 0,0 0,1 0,1 0,1l0 -1z"/>
    <rect class="fil2" x="15" y="59" width="7.00016" height="1.00006"/>
    <path class="fil2" d="M14 59l1 0 0 1 -1 0c0,0 0,0 0,-1 0,0 0,0 0,0z"/>
   </g>
  </g>
  <g id="_723844400">
   <path class="fil1" d="M4 64c-2,0 -4,-2 -4,-4l1 0c0,2 1,3 3,3l0 1z"/>
   <path class="fil1" d="M36 60c0,2 -2,4 -4,4l0 -1c2,0 3,-1 3,-3l1 0z"/>
   <path class="fil1" d="M32 0c2,0 4,2 4,4l-1 0c0,-2 -1,-3 -3,-3l0 -1z"/>
   <path class="fil1" d="M0 4c0,-2 2,-4 4,-4l0 1c-2,0 -3,1 -3,3l-1 0z"/>
   <rect class="fil1" x="4" width="28.0414" height="1.00035"/>
   <rect class="fil1" x="4" y="63" width="28.0414" height="1.00035"/>
   <rect class="fil1" y="4" width="1.00006" height="56.0001"/>
   <rect class="fil1" x="35" y="4" width="1.00006" height="56.0001"/>
  </g>
  <path class="fil1" d="M2 6l32 0 0 50 -32 0 0 -50zm1 1l30 0 0 48 -30 0 0 -48z"/>
  <rect class="fil3" x="3" y="7" width="29.9999" height="48.0002"/>
  <path class="fil0" d="M37 60l0 0c0,2 1,3 3,3l0 0 28 0 0 0c2,0 3,-1 3,-3l0 -3 0 -50 0 0 0 -3 0 0c0,-2 -1,-3 -3,-3l0 0 -28 0 0 0c-2,0 -3,1 -3,3l0 3 0 50 0 0 0 3z"/>
  <rect class="fil1" x="52" y="3" width="4.00025" height="0.968598"/>
  <g id="_723869616">
   <g>
    <path class="fil1" d="M57 58c1,0 2,1 2,2 0,0 -1,1 -2,1l0 -3z"/>
    <path class="fil1" d="M50 61c0,0 -1,-1 -1,-1 0,-1 1,-2 1,-2l0 3z"/>
    <rect class="fil1" x="50" y="58" width="7.00016" height="2.99991"/>
   </g>
   <g>
    <path class="fil2" d="M58 59c0,0 0,0 0,0 0,1 0,1 0,1l0 -1z"/>
    <rect class="fil2" x="50" y="59" width="7.00016" height="1.00006"/>
    <path class="fil2" d="M50 59l0 0 0 1 0 0c0,0 0,0 0,-1 0,0 0,0 0,0z"/>
   </g>
  </g>
  <g id="_723867312">
   <path class="fil1" d="M40 64c-2,0 -4,-2 -4,-4l1 0c0,2 1,3 3,3l0 1z"/>
   <path class="fil1" d="M72 60c0,2 -2,4 -4,4l0 -1c2,0 3,-1 3,-3l1 0z"/>
   <path class="fil1" d="M68 0c2,0 4,2 4,4l-1 0c0,-2 -1,-3 -3,-3l0 -1z"/>
   <path class="fil1" d="M36 4c0,-2 2,-4 4,-4l0 1c-2,0 -3,1 -3,3l-1 0z"/>
   <rect class="fil1" x="40" width="28.0414" height="1.00035"/>
   <rect class="fil1" x="40" y="63" width="28.0414" height="1.00035"/>
   <rect class="fil1" x="36" y="4" width="1.00006" height="56.0001"/>
   <rect class="fil1" x="71" y="4" width="1.00006" height="56.0001"/>
  </g>
  <path class="fil1" d="M38 6l32 0 0 50 -32 0 0 -50zm1 1l30 0 0 48 -30 0 0 -48z"/>
  <rect class="fil3" x="39" y="7" width="29.9999" height="48.0002"/>
  <rect class="fil4" x="41" y="18" width="25.9999" height="25.9999"/>
  <path class="fil1" d="M43 20l7 0 0 7 -7 0 0 -7zm20 8l1 0 0 2 -1 0 0 1 0 0 0 1 2 0 0 1 -2 0 0 2 0 1 0 0 0 1 -1 0 0 1 3 0 0 1 -3 0 0 1 1 0 0 2 -1 0 0 -2 -2 0 0 2 -1 0 0 -2 -1 0 0 2 -1 0 0 -2 -1 0 0 -1 -2 0 0 -1 0 0 0 2 -2 0 0 -2 1 0 0 -1 -1 0 0 -1 -1 0 0 -1 1 0 0 1 1 0 0 -3 -1 0 0 1 -1 0 0 -1 -2 0 0 -1 1 0 0 -1 -2 0 0 2 -1 0 0 0 -1 0 -1 0 0 -1 -1 0 0 1 -1 0 0 -4 1 0 0 2 1 0 0 -2 1 0 0 1 1 0 0 1 1 0 0 -1 3 0 0 -1 1 0 0 -1 -1 0 0 -2 1 0 0 2 2 0 0 -1 -1 0 0 -1 0 0 0 -1 0 -1 -1 0 0 1 -1 0 0 -1 1 0 0 -1 -1 0 0 -1 1 0 0 1 2 0 0 1 1 0 0 1 0 1 2 0 0 1 -2 0 0 1 -1 0 0 1 3 0 0 -1 1 0 0 1 -1 0 0 1 1 0 1 0 0 -2 1 0 0 2 -1 0 0 2 2 0 0 -1 1 0 0 -1 -1 0 0 -2 1 0 0 1 1 0 0 -1zm-1 4l-1 0 0 1 1 0 0 -1zm-1 3l0 -2 -1 0 0 1 -1 0 0 -1 0 -1 -1 0 0 -1 -1 0 0 -1 -2 0 0 1 0 1 0 0 0 1 1 0 0 2 -1 0 0 1 -1 0 -1 0 0 1 1 0 0 1 1 0 0 -1 0 0 0 -1 2 0 0 1 1 0 0 1 -1 0 0 1 2 0 0 -2 1 0 0 2 2 0 0 -1 -1 0 0 -1 1 0 0 -1 -3 0 0 -1 2 0zm-4 -1l1 0 0 1 -1 0 0 -1zm-2 0l0 -1 -1 0 0 1 1 0zm-2 -2l0 -1 0 -1 1 0 0 -1 -2 0 0 1 0 1 0 0 0 1 1 0zm1 -5l1 0 0 -1 -1 0 0 1zm1 -6l2 0 0 1 -3 0 0 -1 -1 0 0 -1 2 0 0 1zm1 16l0 1 1 0 0 -1 -1 0zm-2 3l2 0 0 1 -2 0 0 -1zm-6 -12l2 0 0 1 -2 0 0 -1zm3 -8l1 0 0 1 -1 0 0 -1zm-8 15l7 0 0 7 -7 0 0 -7zm2 2l3 0 0 3 -3 0 0 -3zm-1 -1l5 0 0 5 -5 0 0 -5zm14 -16l7 0 0 7 -7 0 0 -7zm2 2l3 0 0 3 -3 0 0 -3zm-1 -1l5 0 0 5 -5 0 0 -5zm-14 1l3 0 0 3 -3 0 0 -3zm-1 -1l5 0 0 5 -5 0 0 -5z"/>
  <g>
   <g style="clip-path:url(#id0)">
    <image x="5" y="18" width="25.9999" height="25.9999" xlink:href="qrctbpwb_Images\qrctbpwb_ImgID1.png"/>
   </g>
  </g>
  <g>
   <g style="clip-path:url(#id1)">
    <image x="6" y="25" width="23.1109" height="10.8334" xlink:href="qrctbpwb_Images\qrctbpwb_ImgID2.png"/>
   </g>
  </g>
  <path class="fil5" d="M18 25c7,0 13,2 13,6 0,4 -6,7 -13,7 -7,0 -13,-3 -13,-7 0,-4 6,-6 13,-6zm0 0c6,0 12,3 12,6 0,3 -6,5 -12,5 -6,0 -12,-2 -12,-5 0,-3 6,-6 12,-6z"/>
  <path class="fil6" d="M31 31c0,4 -6,7 -13,7 -7,0 -13,-3 -13,-7l0 0c0,4 6,7 13,7 7,0 13,-3 13,-7l0 0z"/>
  <g>
   <g style="clip-path:url(#id2)">
    <image x="8" y="31" width="19.6656" height="5.05559" xlink:href="qrctbpwb_Images\qrctbpwb_ImgID3.png"/>
   </g>
  </g>
  <g>
   <path class="fil1" d="M28 25c0,0 1,1 1,1l-1 0c0,0 0,0 0,0 0,0 -1,0 -1,0l0 0c0,0 0,-1 1,-1zm-1 1l0 0 0 5 0 0 0 -5zm1 0l1 0 0 1 -1 0 0 -1zm1 1c0,0 0,0 0,0 0,0 -1,0 -1,0l1 0z"/>
   <path class="fil1" d="M26 24c1,0 1,1 1,1l0 0c0,0 -1,0 -1,0 0,0 0,0 0,0l-1 0c0,0 1,-1 1,-1zm-1 1l1 0 0 5 -1 0 0 -5zm2 0l0 0 0 1 0 0 0 -1zm0 1c0,0 0,0 0,0 0,0 0,0 0,0l0 0z"/>
   <rect class="fil1" x="25" y="30" width="0.361103" height="0.902772"/>
   <path class="fil1" d="M27 32c0,0 0,0 0,0 0,0 0,0 0,0l0 0z"/>
   <path class="fil1" d="M26 31c0,0 0,0 -1,0 0,0 0,0 0,0l1 0z"/>
   <rect class="fil1" x="27" y="31" width="0.361113" height="1.08334"/>
   <polygon class="fil1" points="25,30 25,30 27,31 27,31 "/>
   <polygon class="fil1" points="25,28 25,29 27,30 27,30 "/>
   <polygon class="fil1" points="25,27 25,27 27,28 27,28 "/>
  </g>
  <path class="fil7" style="mask:url(#id3)" d="M20 26c0,0 0,0 0,0 1,1 2,1 3,1 0,0 0,0 0,0 1,0 2,1 4,1 0,0 0,0 0,0 0,1 1,1 2,1 0,1 1,2 1,2 0,3 -6,5 -12,5 -6,0 -12,-2 -12,-5 0,0 1,-1 1,-2 1,0 2,0 2,-1 0,0 0,0 0,0 2,0 3,-1 4,-1 0,0 0,0 0,0 1,0 2,0 3,-1 0,0 0,0 0,0 1,0 1,0 2,0 1,0 1,0 2,0z"/>
 </g>
</svg>
