<?xml version="1.0" encoding="UTF-8"?>
<!DOCTYPE svg PUBLIC "-//W3C//DTD SVG 1.1//EN" "http://www.w3.org/Graphics/SVG/1.1/DTD/svg11.dtd">
<!-- Creator: CorelDRAW X8 -->
<svg xmlns="http://www.w3.org/2000/svg" xml:space="preserve" width="72px" height="64px" version="1.1" style="shape-rendering:geometricPrecision; text-rendering:geometricPrecision; image-rendering:optimizeQuality; fill-rule:evenodd; clip-rule:evenodd"
viewBox="0 0 72 64"
 xmlns:xlink="http://www.w3.org/1999/xlink">
 <defs>
  <style type="text/css">
   <![CDATA[
    .fil1 {fill:black}
    .fil2 {fill:#333333}
    .fil0 {fill:#8E8E8E}
    .fil3 {fill:#E8E8E8}
    .fil5 {fill:#FFCC00}
    .fil4 {fill:white}
    .fil6 {fill:#158DE3;fill-opacity:0.749020}
   ]]>
  </style>
 </defs>
 <g id="Слой_x0020_1">
  <metadata id="CorelCorpID_0Corel-Layer"/>
  <path class="fil0" d="M1 60l0 0c0,2 1,3 3,3l0 0 28 0 0 0c2,0 3,-1 3,-3l0 -3 0 -50 0 0 0 -3 0 0c0,-2 -1,-3 -3,-3l0 0 -28 0 0 0c-2,0 -3,1 -3,3l0 3 0 50 0 0 0 3z"/>
  <rect class="fil1" x="16" y="3" width="4.00025" height="0.968598"/>
  <g id="_719960800">
   <g>
    <path class="fil1" d="M21 58c1,0 2,1 2,2 0,0 -1,1 -2,1l0 -3z"/>
    <path class="fil1" d="M15 61c-1,0 -2,-1 -2,-1 0,-1 1,-2 2,-2l0 3z"/>
    <rect class="fil1" x="15" y="58" width="7.00016" height="2.99991"/>
   </g>
   <g>
    <path class="fil2" d="M22 59c0,0 0,0 0,0 0,1 0,1 0,1l0 -1z"/>
    <rect class="fil2" x="15" y="59" width="7.00016" height="1.00006"/>
    <path class="fil2" d="M14 59l1 0 0 1 -1 0c0,0 0,0 0,-1 0,0 0,0 0,0z"/>
   </g>
  </g>
  <g id="_841828016">
   <path class="fil1" d="M4 64c-2,0 -4,-2 -4,-4l1 0c0,2 1,3 3,3l0 1z"/>
   <path class="fil1" d="M36 60c0,2 -2,4 -4,4l0 -1c2,0 3,-1 3,-3l1 0z"/>
   <path class="fil1" d="M32 0c2,0 4,2 4,4l-1 0c0,-2 -1,-3 -3,-3l0 -1z"/>
   <path class="fil1" d="M0 4c0,-2 2,-4 4,-4l0 1c-2,0 -3,1 -3,3l-1 0z"/>
   <rect class="fil1" x="4" width="28.0414" height="1.00035"/>
   <rect class="fil1" x="4" y="63" width="28.0414" height="1.00035"/>
   <rect class="fil1" y="4" width="1.00006" height="56.0001"/>
   <rect class="fil1" x="35" y="4" width="1.00006" height="56.0001"/>
  </g>
  <path class="fil1" d="M2 6l32 0 0 50 -32 0 0 -50zm1 1l30 0 0 48 -30 0 0 -48z"/>
  <rect class="fil3" x="3" y="7" width="29.9999" height="48.0002"/>
  <path class="fil0" d="M37 60l0 0c0,2 1,3 3,3l0 0 28 0 0 0c2,0 3,-1 3,-3l0 -3 0 -50 0 0 0 -3 0 0c0,-2 -1,-3 -3,-3l0 0 -28 0 0 0c-2,0 -3,1 -3,3l0 3 0 50 0 0 0 3z"/>
  <rect class="fil1" x="52" y="3" width="4.00025" height="0.968598"/>
  <g id="_841839760">
   <g>
    <path class="fil1" d="M57 58c1,0 2,1 2,2 0,0 -1,1 -2,1l0 -3z"/>
    <path class="fil1" d="M50 61c0,0 -1,-1 -1,-1 0,-1 1,-2 1,-2l0 3z"/>
    <rect class="fil1" x="50" y="58" width="7.00016" height="2.99991"/>
   </g>
   <g>
    <path class="fil2" d="M58 59c0,0 0,0 0,0 0,1 0,1 0,1l0 -1z"/>
    <rect class="fil2" x="50" y="59" width="7.00016" height="1.00006"/>
    <path class="fil2" d="M50 59l0 0 0 1 0 0c0,0 0,0 0,-1 0,0 0,0 0,0z"/>
   </g>
  </g>
  <g id="_841836048">
   <path class="fil1" d="M40 64c-2,0 -4,-2 -4,-4l1 0c0,2 1,3 3,3l0 1z"/>
   <path class="fil1" d="M72 60c0,2 -2,4 -4,4l0 -1c2,0 3,-1 3,-3l1 0z"/>
   <path class="fil1" d="M68 0c2,0 4,2 4,4l-1 0c0,-2 -1,-3 -3,-3l0 -1z"/>
   <path class="fil1" d="M36 4c0,-2 2,-4 4,-4l0 1c-2,0 -3,1 -3,3l-1 0z"/>
   <rect class="fil1" x="40" width="28.0414" height="1.00035"/>
   <rect class="fil1" x="40" y="63" width="28.0414" height="1.00035"/>
   <rect class="fil1" x="36" y="4" width="1.00006" height="56.0001"/>
   <rect class="fil1" x="71" y="4" width="1.00006" height="56.0001"/>
  </g>
  <path class="fil1" d="M38 6l32 0 0 50 -32 0 0 -50zm1 1l30 0 0 48 -30 0 0 -48z"/>
  <rect class="fil3" x="39" y="7" width="29.9999" height="48.0002"/>
  <rect class="fil4" x="41" y="18" width="25.9999" height="25.9999"/>
  <path class="fil1" d="M43 20l7 0 0 7 -7 0 0 -7zm20 8l1 0 0 2 -1 0 0 1 0 0 0 1 2 0 0 1 -2 0 0 2 0 1 0 0 0 1 -1 0 0 1 3 0 0 1 -3 0 0 1 1 0 0 2 -1 0 0 -2 -2 0 0 2 -1 0 0 -2 -1 0 0 2 -1 0 0 -2 -1 0 0 -1 -2 0 0 -1 0 0 0 2 -2 0 0 -2 1 0 0 -1 -1 0 0 -1 -1 0 0 -1 1 0 0 1 1 0 0 -3 -1 0 0 1 -1 0 0 -1 -2 0 0 -1 1 0 0 -1 -2 0 0 2 -1 0 0 0 -1 0 -1 0 0 -1 -1 0 0 1 -1 0 0 -4 1 0 0 2 1 0 0 -2 1 0 0 1 1 0 0 1 1 0 0 -1 3 0 0 -1 1 0 0 -1 -1 0 0 -2 1 0 0 2 2 0 0 -1 -1 0 0 -1 0 0 0 -1 0 -1 -1 0 0 1 -1 0 0 -1 1 0 0 -1 -1 0 0 -1 1 0 0 1 2 0 0 1 1 0 0 1 0 1 2 0 0 1 -2 0 0 1 -1 0 0 1 3 0 0 -1 1 0 0 1 -1 0 0 1 1 0 1 0 0 -2 1 0 0 2 -1 0 0 2 2 0 0 -1 1 0 0 -1 -1 0 0 -2 1 0 0 1 1 0 0 -1zm-1 4l-1 0 0 1 1 0 0 -1zm-1 3l0 -2 -1 0 0 1 -1 0 0 -1 0 -1 -1 0 0 -1 -1 0 0 -1 -2 0 0 1 0 1 0 0 0 1 1 0 0 2 -1 0 0 1 -1 0 -1 0 0 1 1 0 0 1 1 0 0 -1 0 0 0 -1 2 0 0 1 1 0 0 1 -1 0 0 1 2 0 0 -2 1 0 0 2 2 0 0 -1 -1 0 0 -1 1 0 0 -1 -3 0 0 -1 2 0zm-4 -1l1 0 0 1 -1 0 0 -1zm-2 0l0 -1 -1 0 0 1 1 0zm-2 -2l0 -1 0 -1 1 0 0 -1 -2 0 0 1 0 1 0 0 0 1 1 0zm1 -5l1 0 0 -1 -1 0 0 1zm1 -6l2 0 0 1 -3 0 0 -1 -1 0 0 -1 2 0 0 1zm1 16l0 1 1 0 0 -1 -1 0zm-2 3l2 0 0 1 -2 0 0 -1zm-6 -12l2 0 0 1 -2 0 0 -1zm3 -8l1 0 0 1 -1 0 0 -1zm-8 15l7 0 0 7 -7 0 0 -7zm2 2l3 0 0 3 -3 0 0 -3zm-1 -1l5 0 0 5 -5 0 0 -5zm14 -16l7 0 0 7 -7 0 0 -7zm2 2l3 0 0 3 -3 0 0 -3zm-1 -1l5 0 0 5 -5 0 0 -5zm-14 1l3 0 0 3 -3 0 0 -3zm-1 -1l5 0 0 5 -5 0 0 -5z"/>
  <circle class="fil4" cx="18" cy="31" r="13"/>
  <circle class="fil5" cx="18" cy="31" r="13"/>
  <circle class="fil4" cx="18" cy="31" r="11"/>
  <path class="fil6" d="M18 20c6,0 11,5 11,11 0,6 -5,11 -11,11 -6,0 -11,-5 -11,-11 0,-6 5,-11 11,-11z"/>
  <path class="fil4" d="M8 30c0,1 2,1 4,1 1,0 3,0 3,-1 0,1 -2,2 -3,2 -2,0 -4,-1 -4,-2z"/>
  <path class="fil4" d="M15 30c0,1 1,1 3,1 2,0 3,0 3,-1 0,1 -1,2 -3,2 -2,0 -3,-1 -3,-2z"/>
  <path class="fil4" d="M21 30c0,1 2,1 4,1 1,0 3,0 3,-1 0,1 -2,2 -3,2 -2,0 -4,-1 -4,-2z"/>
  <path class="fil4" d="M18 35c0,1 1,1 3,1 2,0 4,0 4,-1 0,1 -2,2 -4,2 -2,0 -3,-1 -3,-2z"/>
  <path class="fil4" d="M12 35c0,1 1,1 3,1 2,0 3,0 3,-1 0,1 -1,2 -3,2 -2,0 -3,-1 -3,-2z"/>
  <path class="fil4" d="M18 25c0,1 1,1 3,1 2,0 4,0 4,-1 0,1 -2,2 -4,2 -2,0 -3,-1 -3,-2z"/>
  <path class="fil4" d="M12 25c0,1 1,1 3,1 2,0 3,0 3,-1 0,1 -1,2 -3,2 -2,0 -3,-1 -3,-2z"/>
  <path class="fil4" d="M25 36c-1,0 -2,1 -4,1 -1,0 -2,-1 -3,-1l0 -1c1,0 2,1 3,1 2,0 3,-1 4,-1l0 1z"/>
  <path class="fil4" d="M18 36c-1,0 -2,1 -3,1 -2,0 -3,-1 -3,-1l0 -1c0,0 1,1 3,1 1,0 2,-1 3,-1l0 1z"/>
  <path class="fil4" d="M25 26c-1,1 -2,1 -4,1 -1,0 -2,0 -3,-1l0 -1c1,1 2,1 3,1 2,0 3,0 4,-1l0 1z"/>
  <path class="fil4" d="M18 26c-1,1 -2,1 -3,1 -2,0 -3,0 -3,-1l0 -1c0,1 1,1 3,1 1,0 2,0 3,-1l0 1z"/>
  <path class="fil4" d="M28 31c-1,0 -2,1 -3,1 -2,0 -3,-1 -4,-1l0 -1c1,1 2,1 4,1 1,0 2,0 3,-1l0 1z"/>
  <path class="fil4" d="M21 31c0,0 -2,1 -3,1 -1,0 -3,-1 -3,-1l0 -1c0,1 2,1 3,1 1,0 3,0 3,-1l0 1z"/>
  <path class="fil4" d="M15 31c-1,0 -2,1 -3,1 -2,0 -3,-1 -4,-1l0 -1c1,1 2,1 4,1 1,0 2,0 3,-1l0 1z"/>
 </g>
</svg>
