<?xml version="1.0" encoding="UTF-8"?>
<!DOCTYPE svg PUBLIC "-//W3C//DTD SVG 1.1//EN" "http://www.w3.org/Graphics/SVG/1.1/DTD/svg11.dtd">
<!-- Creator: CorelDRAW X8 -->
<svg xmlns="http://www.w3.org/2000/svg" xml:space="preserve" width="128px" height="64px" version="1.1" style="shape-rendering:geometricPrecision; text-rendering:geometricPrecision; image-rendering:optimizeQuality; fill-rule:evenodd; clip-rule:evenodd"
viewBox="0 0 128 64"
 xmlns:xlink="http://www.w3.org/1999/xlink">
 <defs>
  <style type="text/css">
   <![CDATA[
    .fil0 {fill:none}
    .fil1 {fill:white}
    .fil3 {fill:url(#id0)}
    .fil4 {fill:url(#id1)}
    .fil2 {fill:url(#id2)}
   ]]>
  </style>
  <radialGradient id="id0" gradientUnits="userSpaceOnUse" gradientTransform="matrix(2 -0 -0 2 -64 -64)" cx="64" cy="64.0001" r="21.0001" fx="64" fy="64.0001">
   <stop offset="0" style="stop-opacity:1; stop-color:#FA9D39"/>
   <stop offset="0.670588" style="stop-opacity:1; stop-color:#FA9D39"/>
   <stop offset="1" style="stop-opacity:1; stop-color:#D95B29"/>
  </radialGradient>
  <radialGradient id="id1" gradientUnits="userSpaceOnUse" gradientTransform="matrix(2 -0 -0 2 -64 -64)" cx="64.0001" cy="64.0001" r="9.00001" fx="64.0001" fy="64.0001">
   <stop offset="0" style="stop-opacity:1; stop-color:#FA9D39"/>
   <stop offset="0.501961" style="stop-opacity:1; stop-color:#FA9D39"/>
   <stop offset="1" style="stop-opacity:1; stop-color:#D95B29"/>
  </radialGradient>
  <radialGradient id="id2" gradientUnits="userSpaceOnUse" gradientTransform="matrix(2 -0 -0 2 -64 -64)" cx="64" cy="64.0001" r="32.0001" fx="64" fy="64.0001">
   <stop offset="0" style="stop-opacity:1; stop-color:#FA9D39"/>
   <stop offset="0.788235" style="stop-opacity:1; stop-color:#FA9D39"/>
   <stop offset="1" style="stop-opacity:1; stop-color:#D95B29"/>
  </radialGradient>
 </defs>
 <g id="Слой_x0020_1">
  <metadata id="CorelCorpID_0Corel-Layer"/>
  <rect class="fil0" width="128" height="64"/>
  <path class="fil1" d="M0 0c35,0 64,29 64,64l0 0 -14 0 0 0c0,-28 -22,-50 -50,-50l0 -14z"/>
  <path class="fil1" d="M0 22c23,0 42,19 42,42l-14 0 0 0c0,-15 -13,-28 -28,-28l0 -14z"/>
  <circle class="fil1" cx="9" cy="55" r="9"/>
  <path class="fil2" d="M64 0c35,0 64,29 64,64l0 0 -14 0 0 0c0,-28 -22,-50 -50,-50l0 -14z"/>
  <path class="fil3" d="M64 22c23,0 42,19 42,42l-14 0 0 0c0,-15 -13,-28 -28,-28l0 -14z"/>
  <circle class="fil4" cx="73" cy="55" r="9"/>
 </g>
</svg>
